<svg xmlns="http://www.w3.org/2000/svg" viewBox="0 0 259 259"><defs><style>.cls-1{fill:#1c68b5;stroke:#0c3247;stroke-miterlimit:10;stroke-width:7px;}.cls-2{fill:#f4f4f4;}</style></defs><title>button</title><g id="Layer_2" data-name="Layer 2"><g id="Layer_2-2" data-name="Layer 2"><circle class="cls-1" cx="129.5" cy="129.5" r="126"/><path class="cls-2" d="M66.79,197.49l85.33-65.82a3.09,3.09,0,0,0,0-5.15L66.79,60.7c-.61-.48-1.65,0-1.44.63l21.91,67.6a.44.44,0,0,1,0,.32L65.35,196.86C65.14,197.51,66.18,198,66.79,197.49Z"/><path class="cls-2" d="M124.79,197.49l85.33-65.82a3.09,3.09,0,0,0,0-5.15L124.79,60.7c-.61-.48-1.65,0-1.44.63l21.91,67.6a.44.44,0,0,1,0,.32l-21.91,67.61C123.14,197.51,124.18,198,124.79,197.49Z"/></g></g></svg>